ply
format ascii 1.0
element vertex 1700
property float x
property float y
property float z
end_header
-0.043092 0.016549 -0.000450
-0.024827 -0.015350 0.008191
-0.039885 0.014715 -0.000047
0.067024 -0.005870 0.008662
-0.004791 0.006197 0.001949
0.070962 0.006592 -0.008952
0.022343 0.016469 0.000243
0.041995 0.014910 0.000930
0.061327 -0.012153 -0.009560
-0.016799 -0.013714 -0.004263
-0.025594 -0.003315 0.008832
-0.026228 0.018919 -0.008914
0.033165 0.015705 -0.005072
-0.035437 -0.023396 0.004611
-0.008988 0.015481 -0.004768
-0.045590 -0.017365 -0.004020
0.034432 0.021051 0.007108
-0.073283 0.013761 -0.004985
0.057964 -0.023743 -0.007065
-0.069020 -0.005194 0.004278
-0.019434 0.018317 0.007401
-0.055071 -0.016946 -0.009762
-0.045924 0.009494 0.000176
-0.045559 -0.008373 -0.003988
-0.006918 0.024131 0.007643
0.001733 -0.005500 -0.002787
0.058501 -0.016754 0.006225
-0.055417 -0.015860 0.006647
-0.030293 0.016171 -0.002353
0.066301 -0.018233 -0.008537
-0.029959 -0.019204 -0.004114
0.012605 -0.019502 -0.003306
-0.045492 -0.022465 0.008225
-0.075310 -0.021772 0.004049
-0.076497 0.009170 0.002896
-0.051615 0.008018 -0.008742
0.047149 -0.010028 0.004940
0.074775 0.017944 -0.002074
-0.046869 -0.007590 0.002488
-0.003970 0.016428 -0.004634
-0.069954 0.012524 0.004866
0.078288 0.019969 0.008046
0.050280 0.012869 0.008588
-0.007684 -0.001415 0.005351
-0.022780 0.008695 -0.003767
-0.022172 0.009402 0.003763
0.071964 -0.022926 0.004325
0.020297 0.019609 0.005908
-0.056865 -0.009877 -0.005305
-0.046254 0.010340 0.004269
0.020705 -0.013422 -0.007819
0.079099 -0.002913 -0.000268
-0.052940 -0.007842 -0.002859
0.070086 -0.006892 0.008640
-0.060900 0.012751 0.008204
-0.026868 0.017541 0.009298
-0.067237 -0.013248 -0.004694
0.044989 -0.001381 -0.006062
-0.012759 -0.018739 -0.003816
-0.065314 -0.002534 -0.001942
-0.048718 0.011954 -0.006703
0.050830 0.019317 0.001894
-0.052587 -0.006231 0.002116
-0.068778 0.010086 -0.003886
0.053697 0.011521 0.008294
-0.068965 0.016628 0.005830
-0.013750 0.017833 0.006148
-0.036940 0.009896 -0.007818
-0.076357 -0.018015 -0.001848
0.010835 0.018921 0.000409
0.070477 -0.022151 -0.006771
0.020041 -0.018023 -0.001162
0.056306 0.015381 -0.003710
0.068154 0.024267 -0.004235
0.054893 -0.024127 0.001010
0.059634 0.004273 0.007368
0.013343 -0.008990 0.009527
-0.018856 -0.002471 -0.006766
-0.007416 0.020598 0.009469
-0.072580 -0.009124 -0.005510
-0.007868 -0.024953 0.007888
0.040319 -0.014198 -0.009804
-0.063015 -0.004430 0.002369
-0.076464 -0.002328 -0.001467
-0.040797 -0.024890 0.006928
-0.038104 -0.001506 0.002723
-0.051545 -0.001867 0.004274
0.010330 0.014093 -0.002596
0.045654 -0.023682 -0.008008
0.069883 0.005227 -0.001234
0.039925 0.023511 -0.007974
0.009962 -0.006308 -0.009019
-0.000777 0.019744 0.003031
0.011298 0.020172 -0.004091
-0.064381 -0.011489 0.003144
-0.037108 0.003932 -0.005003
-0.069943 -0.006604 0.000693
-0.070318 -0.019519 0.000285
0.059033 0.016437 -0.004169
-0.057736 -0.008536 0.007909
0.004626 -0.017469 -0.005921
-0.070308 0.012396 0.008387
-0.072136 -0.020277 0.001411
0.053488 -0.007901 -0.004732
-0.077447 -0.022300 -0.007347
0.040575 0.021978 -0.001628
-0.056534 -0.012936 -0.007864
0.006594 0.010554 -0.000907
-0.018579 0.018336 0.005744
0.054188 0.005805 0.002303
-0.061968 -0.021128 0.009321
0.022046 0.012060 -0.005127
-0.063846 -0.021200 0.006955
-0.030309 -0.013993 0.005956
-0.028613 -0.020700 0.007764
-0.078351 -0.005615 0.008300
-0.071127 -0.000114 0.008757
0.008541 0.014957 0.009738
0.041356 0.012396 -0.001050
0.065732 -0.008709 -0.001559
-0.066662 0.020980 -0.005386
-0.041435 -0.020266 -0.006733
0.045331 0.013752 -0.001484
-0.037499 0.015876 -0.006736
0.076978 -0.006361 0.003146
-0.077306 0.008833 0.003145
0.075973 0.001421 0.009471
-0.025875 0.022285 -0.000719
-0.006036 -0.007584 0.002370
-0.046673 -0.022543 0.009325
-0.079075 -0.003449 -0.002411
0.028890 0.022410 -0.004815
-0.001454 0.016117 0.006982
0.072385 -0.012060 -0.007279
0.022002 -0.021239 0.008051
0.004337 0.010963 0.005667
-0.019840 0.006600 -0.000575
0.059445 -0.009226 0.008633
0.014263 0.002513 0.006869
-0.005485 0.016226 -0.000675
0.018364 0.002453 -0.003896
0.050736 0.013785 0.005633
-0.056428 -0.016753 0.002906
0.068252 0.013806 -0.007870
0.041790 0.002143 0.006014
0.060789 0.009336 -0.001671
0.036836 0.022170 0.008548
-0.034480 0.017851 0.001089
-0.068827 -0.003355 0.009537
-0.074573 -0.017230 -0.008319
0.031801 -0.005434 0.006044
0.038989 -0.008642 0.001442
0.063149 -0.022034 0.004698
0.019838 0.004228 0.008201
-0.056101 0.017316 -0.007195
-0.070740 -0.021051 0.005786
0.069446 -0.020266 -0.009173
-0.051474 0.018855 -0.001275
-0.029281 0.017567 -0.006498
-0.007319 -0.011546 0.004033
-0.009032 0.007407 -0.005637
-0.014365 0.000421 -0.000686
-0.005818 -0.001635 0.000026
0.050777 -0.006863 -0.007586
0.067952 -0.008477 0.001950
0.070604 -0.011256 -0.001330
0.065675 0.000344 0.007056
0.042185 -0.009751 -0.003892
0.007683 0.011657 -0.007390
0.001415 -0.007143 0.006056
-0.036817 0.009270 -0.006304
0.063707 0.007413 -0.007438
0.075385 -0.009110 -0.001318
0.043871 0.022798 -0.004049
0.044732 -0.005905 0.008923
-0.075074 -0.012764 -0.002288
-0.061853 0.014620 -0.006899
0.038211 -0.008058 -0.006630
-0.030579 0.011146 -0.001916
0.016165 -0.009794 0.004421
-0.071910 0.007238 -0.007802
-0.064711 0.016638 0.000592
-0.061135 -0.023378 -0.007124
-0.013655 0.003061 -0.002976
-0.025929 -0.015766 0.004837
0.072553 -0.013918 0.000980
-0.018996 -0.001861 0.000365
-0.026481 0.020970 0.004578
0.041385 0.019582 0.004058
0.015939 -0.023466 0.006800
0.068642 0.020348 -0.007520
-0.055683 -0.005863 0.008454
0.054841 0.005377 -0.008955
-0.065255 -0.007518 0.006834
-0.035843 -0.002843 -0.000334
0.004834 -0.017139 -0.002983
-0.063512 -0.009084 -0.009805
0.026227 0.024260 0.000576
0.007756 0.019295 0.007151
0.008633 0.009139 -0.000669
0.078703 0.006745 -0.004772
-0.020357 0.023410 -0.002649
-0.051579 -0.020430 -0.007158
-0.075313 0.002200 0.007486
0.059103 -0.003733 -0.007028
0.004504 0.005345 0.006526
-0.016425 0.012672 0.007945
0.057941 0.001392 -0.004212
0.020131 0.019180 0.005616
-0.074139 0.000093 -0.003751
-0.072389 -0.000117 -0.002783
0.020211 0.011961 0.000684
0.078560 -0.013830 0.003782
-0.019541 0.004448 0.007560
-0.037245 0.012621 0.007248
-0.068992 -0.015503 0.008116
0.009624 0.006205 0.004788
0.052827 0.011847 -0.004688
-0.042755 -0.007571 -0.004046
0.001676 -0.002682 0.008319
-0.007950 -0.021650 -0.006714
-0.079372 -0.002926 0.000390
0.051629 0.019851 0.001002
-0.019947 -0.013803 0.006881
0.074409 -0.005262 -0.002152
0.016466 -0.007559 -0.006278
-0.006374 -0.008679 -0.002974
-0.014300 0.010225 0.000844
-0.045678 -0.017036 -0.001613
0.006382 -0.020702 0.007900
0.014328 0.005666 0.009576
-0.034800 0.009921 -0.006191
-0.052308 -0.000184 0.004102
-0.044522 -0.012217 -0.001588
-0.026207 -0.020031 0.007943
-0.054913 -0.010153 -0.002077
0.056216 0.015536 -0.006079
0.021277 0.007585 0.005102
0.023400 -0.002651 -0.009287
0.074543 -0.021299 -0.008019
-0.072507 0.012534 -0.000724
0.058316 -0.006369 0.006272
0.057344 0.019932 -0.003734
0.021008 -0.007521 0.007604
-0.062861 0.008467 -0.004852
0.057487 -0.008607 0.002966
-0.030720 0.020824 -0.003982
-0.060997 0.013424 0.004188
-0.031648 -0.020246 -0.000222
-0.007942 -0.003059 0.003040
-0.052490 -0.016592 -0.000336
-0.026242 -0.000459 0.003287
-0.041115 0.015637 0.006628
0.030183 0.001388 -0.003527
0.015615 0.010623 0.006558
0.024780 -0.024172 -0.007127
-0.041405 -0.003676 0.008279
-0.062491 0.005459 -0.008598
0.037833 -0.010536 -0.005396
-0.069179 0.008489 -0.003662
-0.060233 -0.019535 0.000076
-0.056408 -0.012321 -0.004224
0.054291 -0.024512 -0.006274
0.017206 0.012194 0.006546
0.025767 -0.016761 -0.002764
0.070983 0.006244 0.000905
-0.049884 -0.002085 0.000591
-0.050440 0.015307 0.007570
0.076355 0.011489 0.005034
-0.008523 -0.024896 -0.004630
0.068139 -0.008549 -0.008325
-0.056691 0.016144 0.000671
0.058604 -0.007546 -0.001794
-0.078810 0.013814 0.006352
0.043451 0.018358 0.002540
0.060968 -0.009032 0.006835
-0.039148 0.019335 0.003565
0.041828 0.004440 -0.004882
0.005467 -0.011981 -0.009819
0.059404 0.016676 -0.004692
-0.072760 -0.022813 0.001194
0.062782 -0.013426 -0.000109
0.042663 -0.016000 0.007395
0.013294 -0.017210 0.005118
-0.001930 0.016130 0.008482
-0.031419 -0.017144 -0.001682
0.031026 0.020018 0.000401
0.077925 -0.011342 0.000743
-0.061397 -0.019851 0.000776
0.040670 -0.016455 0.007508
0.003998 0.017843 -0.005389
0.021916 0.001596 -0.007090
-0.076140 -0.003722 0.002460
-0.062753 0.016679 -0.005887
0.071755 0.016472 -0.009143
0.052656 -0.020433 0.009593
0.021991 0.022240 -0.002046
0.022318 0.020115 0.003301
-0.032002 0.016940 0.007493
-0.069035 -0.022039 0.000970
0.005570 -0.001581 0.002333
-0.042607 -0.021908 0.006093
0.040275 0.018679 -0.000243
0.060148 -0.009260 -0.004482
-0.060643 0.016809 -0.008844
-0.074157 0.019121 -0.007498
-0.037404 0.008289 -0.001277
0.063731 0.015045 0.003491
0.068909 -0.017653 -0.003632
-0.006084 0.008181 -0.001029
-0.065282 0.014405 -0.006536
-0.006886 -0.015759 0.002150
-0.068716 -0.008414 -0.002218
0.029421 0.001280 -0.007588
0.053110 -0.010726 -0.003186
0.048230 0.011481 0.009834
0.071466 -0.001421 0.005521
0.061227 -0.002700 0.001675
0.007149 -0.013027 -0.002907
-0.077545 0.022052 0.005154
-0.029310 -0.013565 -0.002710
-0.039885 -0.020124 0.002369
0.040131 -0.024296 0.008894
0.063348 -0.017037 0.000014
-0.005205 0.003281 -0.005367
0.004639 -0.012226 0.008729
0.024302 -0.005169 -0.005697
-0.044252 -0.016931 0.004173
-0.063987 0.022104 0.009845
0.047455 -0.009458 0.004647
0.042602 -0.014673 -0.009049
0.079289 -0.006477 0.009422
-0.069715 0.024378 0.004580
-0.022800 0.018820 0.006025
-0.033827 -0.007230 0.005923
0.067769 -0.017443 -0.001349
-0.019035 -0.010884 0.004931
-0.063957 0.002444 -0.008494
0.009986 0.003555 0.001355
-0.058250 -0.020735 0.009721
-0.030081 -0.004233 0.000880
0.055309 0.006429 -0.006280
0.071700 0.017560 0.000872
-0.000038 -0.013690 -0.006340
0.025198 -0.003874 -0.007878
0.077217 0.017364 0.000525
-0.010708 -0.015439 -0.001243
-0.015443 0.010400 0.001912
0.007245 0.013402 -0.001982
0.061731 -0.000599 0.003666
-0.074509 0.020683 -0.008228
0.024718 0.015111 0.008997
0.051124 -0.011036 0.009267
-0.071238 -0.004708 0.000389
-0.069515 -0.008955 -0.007272
-0.062133 -0.010549 -0.000236
-0.036225 0.002132 -0.001801
0.036895 -0.013648 0.009272
-0.045719 -0.007622 0.000521
-0.019460 0.009409 -0.001166
-0.056359 -0.023610 -0.005063
-0.004720 -0.006374 0.002485
-0.032207 -0.021275 0.008165
-0.064006 0.023145 -0.006227
-0.029567 0.007440 -0.007189
-0.076517 -0.007004 0.005572
0.050712 -0.003485 -0.001586
0.005977 0.001523 0.005553
-0.042855 -0.014726 -0.007763
-0.075177 -0.000397 -0.001152
0.046438 0.007637 -0.000179
0.011302 0.015574 0.007819
0.019217 -0.010361 -0.008312
0.045904 0.023242 -0.006002
0.003531 0.017178 0.008475
-0.061008 -0.007097 -0.004946
0.001393 -0.019406 0.008107
-0.036747 0.011554 0.005870
-0.046065 0.018647 -0.009711
-0.068997 0.017719 -0.007450
0.015899 0.000538 0.003817
0.000671 -0.009873 0.002724
-0.067712 -0.006359 -0.007885
-0.000968 0.004044 0.005601
0.058597 -0.012744 -0.000992
-0.042905 0.014076 0.009190
0.004110 -0.015731 -0.004496
-0.066729 -0.021764 0.004978
0.040943 0.002162 0.007559
0.050062 0.010352 -0.000508
0.059113 -0.001645 0.002762
-0.066777 0.006654 0.007244
-0.037958 -0.010382 0.000287
-0.042505 0.003032 -0.006675
0.070721 0.013988 0.000144
-0.041909 -0.010555 -0.001953
-0.060305 -0.004672 -0.002221
0.012235 0.003806 0.001289
0.018621 -0.005017 -0.000864
-0.037926 0.017602 -0.009917
0.059382 -0.008752 -0.007758
0.023094 -0.018534 -0.007899
-0.018399 -0.002382 0.004648
0.077372 0.021093 0.009492
-0.043732 -0.016652 -0.000881
0.059174 0.011672 0.009583
-0.076870 0.022824 0.006113
0.061392 -0.009856 0.000849
0.071413 0.011789 0.005843
0.010995 0.009302 0.000309
0.024046 -0.009396 -0.000427
0.068352 0.020881 0.002925
0.061643 -0.012258 -0.009518
0.070034 0.014997 -0.002359
0.076149 0.005553 -0.007127
0.012077 0.024124 -0.004446
-0.061530 0.008813 0.003928
-0.048764 0.007092 0.003313
0.046855 0.002811 -0.001990
0.027854 -0.016972 -0.002068
-0.005552 -0.014440 -0.004796
0.028842 -0.013306 0.001439
0.046287 0.006920 -0.001235
-0.038294 -0.003688 0.002264
-0.055769 -0.021093 -0.001290
-0.051451 -0.011128 -0.004621
-0.063599 0.015385 -0.008565
0.040421 0.011224 0.004458
0.050251 -0.000060 0.001909
-0.048210 0.023027 -0.008411
0.014601 0.003813 0.003485
-0.017914 -0.024363 -0.008014
-0.044549 -0.014849 0.007891
0.029375 0.009615 -0.003912
-0.040766 0.003583 0.007232
0.003131 -0.014428 0.004417
-0.026654 -0.006568 0.005425
0.061664 -0.014274 0.001878
-0.046433 0.017181 0.009451
0.013077 0.006821 -0.007935
-0.021064 -0.002327 0.007283
-0.003888 0.021446 -0.000631
-0.048120 0.023661 0.006505
0.050868 -0.022231 -0.004079
-0.025921 -0.011824 -0.005687
-0.060043 0.002657 0.000287
0.054387 -0.003142 -0.003040
0.022306 -0.009409 -0.005019
0.057927 0.008707 0.007510
-0.073071 -0.020277 0.004701
-0.063087 0.007006 0.004526
-0.052999 0.010262 0.001303
0.050856 -0.015216 -0.001245
-0.011629 -0.009913 0.007995
0.036208 -0.015788 0.008926
-0.008126 0.020875 0.006104
0.000295 0.016045 -0.008997
-0.067652 0.013208 0.006466
0.043542 -0.003788 -0.005088
-0.071962 0.014632 0.008535
-0.000255 -0.004530 0.007582
0.024597 -0.022429 -0.009558
0.055233 -0.012362 0.008432
-0.008388 0.019481 0.000931
-0.024354 -0.022665 -0.008253
0.067909 -0.002177 0.008947
0.019868 0.024005 -0.008968
0.006544 0.007107 0.005320
-0.068998 -0.016266 0.007325
0.043616 0.009622 -0.004988
-0.059102 0.009904 -0.002636
0.010405 -0.002339 -0.001916
0.072556 0.024587 -0.009155
-0.053626 0.003020 0.005188
0.041491 0.022446 0.007679
0.061044 0.017766 -0.008095
-0.028257 0.011549 -0.002150
0.007482 -0.013038 -0.003544
-0.037884 0.008149 0.009477
0.072979 0.005078 -0.005382
-0.046155 0.017642 -0.007035
0.047625 -0.016536 0.009035
0.050794 0.007178 0.001493
0.052410 -0.014183 -0.008276
0.047778 -0.020734 0.000974
0.007841 0.023969 0.001558
0.013547 0.021587 0.006359
0.056252 0.017879 0.002565
-0.040967 0.005492 -0.003739
0.002577 -0.016374 0.001132
0.060220 -0.003345 -0.001392
-0.036177 0.021649 0.004185
-0.070225 -0.021453 -0.001897
0.073580 0.021531 -0.003447
-0.006378 -0.012092 0.003845
0.015897 0.018337 0.007563
0.012338 0.021810 -0.005606
-0.029273 -0.018325 -0.005018
0.000039 0.000499 -0.000687
-0.063097 0.018610 -0.006826
0.029005 -0.000633 -0.005577
0.065461 0.004319 0.002912
-0.036893 -0.002658 0.006484
-0.077207 0.015858 -0.007733
-0.006049 -0.019239 -0.008286
-0.013392 -0.002248 0.000873
0.021950 -0.014711 0.001818
-0.031746 0.013757 0.009882
0.055652 0.005313 -0.001420
0.073191 0.001086 -0.008181
0.056250 0.007094 -0.000751
-0.012622 0.023528 0.003370
-0.048956 0.022684 0.002369
-0.008707 -0.002612 -0.000159
0.010279 0.010747 0.005058
-0.054924 -0.018025 0.007994
-0.016860 -0.015430 -0.004431
-0.067521 -0.004726 -0.009755
-0.068939 -0.008707 -0.003576
-0.073217 -0.023246 -0.004896
0.007723 0.013329 0.006771
-0.064950 0.011904 -0.000167
0.028425 0.007629 -0.008109
0.009474 0.024025 -0.002459
0.019110 0.024951 0.003509
-0.068127 0.022500 0.003043
-0.050342 0.023835 -0.003831
0.048658 0.015975 0.008754
-0.030278 0.012722 -0.003631
0.073775 -0.004158 -0.009380
0.070997 0.007059 0.009484
0.028627 -0.012393 0.001655
0.006486 -0.015511 0.008419
0.023007 -0.021138 -0.001675
0.021798 -0.003361 0.008026
-0.022777 -0.024383 0.004748
0.057675 0.001912 -0.006566
0.024853 -0.021791 -0.001611
0.049194 0.012671 -0.006837
-0.028927 0.009269 0.007242
-0.019375 0.023488 -0.006253
0.049688 0.018931 0.007280
-0.011666 -0.005195 0.003975
0.032714 0.014759 0.007104
-0.029823 0.012830 0.008955
-0.074379 -0.018918 0.000914
0.044197 -0.007627 -0.008177
0.054773 0.017642 0.002900
-0.052570 -0.000885 0.000433
0.045848 0.004604 0.002156
-0.047126 0.021679 0.003113
-0.079054 0.003508 0.008965
0.059874 -0.021588 -0.005075
0.044048 0.009811 0.005101
0.077182 -0.017385 -0.002956
-0.024670 -0.004010 0.002196
0.008907 0.004852 0.002397
-0.032269 -0.000988 -0.007717
-0.063815 0.023051 0.000405
0.070366 0.022591 -0.002935
0.073141 -0.017344 0.005223
0.068588 -0.013312 0.004867
-0.059719 0.002636 0.000448
-0.013762 0.024412 0.006522
-0.029914 -0.010883 0.009916
-0.003066 0.003938 0.000803
-0.064601 -0.006170 -0.004876
-0.034677 -0.011709 0.001219
-0.058026 -0.013150 -0.000171
0.021844 0.016103 0.003519
0.047496 -0.020301 0.001753
0.053594 0.002956 -0.002774
-0.021235 0.005060 0.006651
-0.015384 -0.004209 0.008992
-0.046392 0.007657 0.005960
0.062130 0.012228 -0.004486
-0.033593 -0.018923 0.002910
-0.007982 0.001627 0.004268
-0.000315 0.021843 0.008154
-0.076047 0.014232 0.000476
-0.077780 0.013159 0.009687
0.011808 0.012223 -0.000254
-0.010411 0.006727 -0.008782
-0.075072 0.018268 0.008924
0.071400 0.012892 0.001754
0.075671 -0.008316 -0.003046
-0.050034 0.008596 0.008807
-0.058551 -0.012049 -0.009376
-0.073724 0.008871 -0.008644
-0.021666 -0.010561 0.004938
0.016002 0.017499 -0.002128
-0.026407 0.008705 0.007169
0.073900 -0.013635 -0.004444
0.016403 -0.001006 -0.008319
-0.000177 0.006959 -0.003775
0.047096 -0.008735 -0.006598
-0.003414 0.021065 0.000407
-0.002505 0.006255 -0.001434
-0.000186 -0.014390 -0.008433
-0.014567 -0.009675 -0.008827
0.057943 -0.015755 -0.003247
-0.044496 0.002170 -0.007269
0.011082 -0.008876 0.003550
-0.000254 0.003557 -0.002741
-0.068035 0.014064 0.006560
0.011288 -0.022760 -0.002610
0.014247 -0.011684 -0.000976
0.013347 0.021409 0.006246
-0.017178 -0.008013 -0.007668
-0.023407 0.022876 -0.008752
0.078121 -0.006533 -0.008296
-0.029540 -0.017153 -0.005322
0.059538 0.024686 0.002137
-0.062974 -0.004121 0.006021
-0.018963 -0.003247 0.005399
0.058951 0.012406 0.004046
-0.020928 -0.003880 0.001554
-0.035832 -0.008431 0.005711
-0.013134 -0.002829 0.006410
0.076295 -0.014036 0.001840
0.033428 -0.021559 0.009329
0.056566 0.004274 0.005955
0.018815 0.018810 0.004528
-0.002735 -0.001745 -0.004649
0.052143 0.010207 0.007172
-0.056587 -0.016473 0.003204
0.016002 0.007746 -0.009708
-0.038914 0.010222 0.009264
0.069308 -0.022959 -0.004977
0.015303 0.020826 0.001585
-0.078108 -0.021212 -0.009963
-0.005563 0.017096 0.004320
0.045725 -0.010527 -0.008043
0.030980 0.009517 -0.006740
-0.000120 0.012498 0.004318
-0.009617 -0.009285 -0.001266
0.009605 -0.000324 -0.002069
-0.053185 -0.024311 0.003625
-0.057123 0.007173 0.007187
-0.053181 0.007340 0.006723
-0.042132 -0.021260 -0.004621
-0.052102 0.021409 -0.007151
-0.038844 0.012159 0.003754
-0.076887 -0.009295 -0.007790
-0.031739 -0.022225 -0.000857
-0.025613 0.008053 -0.007147
0.061024 -0.006845 -0.001273
0.077438 0.015545 -0.003885
0.012238 -0.010949 0.007611
-0.066515 0.004877 0.001468
0.012595 0.007605 0.002720
0.014346 0.008049 -0.007997
0.025400 0.000039 -0.002466
-0.032363 -0.002546 0.003726
0.050125 -0.002722 -0.007476
-0.070133 0.020337 0.008635
-0.061136 0.000250 0.008582
-0.031003 0.020830 -0.001754
-0.039258 0.013621 -0.004842
-0.016746 -0.003215 0.002517
0.063448 -0.014249 -0.007499
-0.048650 -0.005658 -0.003642
-0.010868 -0.020016 -0.005428
-0.044405 0.011867 0.001140
0.048616 -0.007204 -0.005518
-0.013213 -0.010643 -0.001932
0.053722 0.021474 -0.000383
-0.016964 -0.023514 -0.005235
0.068855 0.008585 -0.006920
0.058001 -0.003617 -0.005613
0.011089 -0.012288 0.009080
-0.013548 0.009941 0.009081
-0.060976 0.023055 -0.005103
-0.068562 -0.000282 0.009936
-0.003404 -0.000862 -0.008134
-0.028856 -0.011866 0.008231
-0.050042 0.011376 -0.009246
-0.064740 -0.024049 0.009338
0.046002 -0.011575 0.007301
0.071221 0.018259 -0.004579
0.010575 -0.001537 -0.002654
-0.019684 -0.009627 -0.006365
0.057948 -0.005213 0.003582
0.009612 -0.011347 -0.006481
0.035378 -0.001526 0.000526
-0.014406 -0.005134 0.001504
-0.043016 0.004291 0.000719
0.015247 0.022588 -0.009306
0.018365 0.018852 -0.006016
0.049253 -0.015522 0.009100
-0.056561 0.021538 0.003852
-0.033407 -0.022473 -0.003340
-0.001023 -0.003865 0.006457
0.005043 0.014402 -0.004192
-0.064702 0.023275 0.003908
-0.036436 0.022410 -0.008545
0.016065 0.003422 0.005328
-0.010757 0.002641 -0.007650
0.058413 0.020886 0.007881
0.044000 -0.006739 -0.001243
0.003991 0.005182 -0.009669
0.069067 -0.001994 0.009045
0.037272 -0.013058 0.003132
-0.029659 0.022749 -0.004210
-0.034209 -0.014857 0.000107
-0.013228 -0.023198 0.008331
0.052031 -0.010913 0.002021
-0.061740 -0.018650 0.000632
0.019337 -0.020611 0.003276
0.052938 -0.010974 -0.000668
0.054827 -0.021659 -0.005000
0.036254 -0.007122 0.001448
-0.044208 -0.003891 -0.009884
-0.002443 0.006720 -0.000380
-0.022172 -0.008072 -0.007007
0.053489 -0.001856 -0.004101
-0.049954 -0.001014 0.001362
-0.007055 0.018606 0.008952
0.028006 -0.006019 -0.002971
-0.002945 -0.016640 -0.002079
0.005902 0.005566 -0.006379
-0.044682 -0.013095 0.007605
-0.054586 -0.023994 0.001479
0.050848 0.005855 0.008928
-0.007240 -0.005494 -0.006726
0.065876 -0.018194 -0.007759
0.000788 0.000030 0.000951
0.052588 0.005964 -0.003643
-0.017331 0.000213 0.004764
0.020433 0.019929 -0.009746
-0.018590 0.010528 -0.008657
0.061104 0.019917 -0.007008
0.013148 -0.016964 -0.009744
-0.068887 0.002191 0.000131
-0.013850 -0.001747 -0.008906
0.003792 -0.016827 0.001139
0.068356 0.016105 0.004601
-0.031884 0.014668 0.008831
0.049885 0.012480 -0.002862
0.029271 -0.012049 0.009814
0.048053 -0.020072 -0.009094
-0.005287 -0.002549 0.006708
0.038899 0.013981 -0.007136
0.066540 -0.010346 -0.002248
0.021256 0.023964 0.003761
0.075528 -0.008820 -0.004520
-0.039935 -0.007201 -0.000123
0.020194 0.013080 -0.000131
-0.042255 -0.022579 0.005672
-0.079600 -0.010023 -0.008878
0.069873 -0.001769 0.006804
0.026775 0.003321 -0.001705
0.041700 0.017688 -0.005812
-0.078250 0.024072 -0.005702
-0.009099 0.000880 -0.008833
-0.036266 0.002036 -0.009217
0.079347 0.021301 0.009630
-0.033233 -0.018576 0.006256
-0.064413 0.019523 -0.005042
-0.046542 0.015450 0.000472
-0.031369 -0.012866 -0.003314
-0.047275 0.008425 -0.002044
0.011203 0.021663 -0.000062
0.050787 -0.024073 -0.002608
0.020114 0.000229 -0.006151
-0.065147 -0.014094 0.003215
0.069587 0.021346 -0.008897
0.066157 0.016917 0.008052
-0.035261 -0.004147 -0.001260
-0.040200 0.013426 -0.004664
-0.033500 0.004326 -0.006273
0.029940 0.019983 -0.000656
-0.003149 -0.012408 -0.000722
0.016783 -0.007791 -0.003296
0.022963 0.019526 0.005193
-0.058827 0.019085 0.000019
0.032666 -0.014879 -0.005833
0.043433 0.012690 -0.009377
-0.072752 0.017469 -0.000185
0.055186 -0.011224 0.001806
-0.048161 0.022921 0.006932
-0.008828 -0.000563 -0.000922
0.068488 -0.018152 -0.000688
0.022894 -0.018439 -0.002269
-0.061886 0.005834 0.006978
0.038243 0.017292 0.003694
0.026321 0.022518 -0.003170
-0.021259 0.015669 -0.000173
0.008573 0.001937 0.004056
0.029630 -0.014561 -0.002336
-0.021222 0.006298 0.006278
-0.067244 -0.006653 -0.003835
0.045988 -0.018435 -0.001135
0.002213 -0.005108 -0.007520
-0.066142 0.023323 -0.006075
-0.067163 -0.002442 -0.006911
-0.052757 -0.022379 0.009999
0.019473 0.022123 0.005935
-0.028980 -0.024975 -0.003592
-0.012928 -0.005614 -0.006457
0.000088 -0.002179 0.004537
0.069588 0.020780 -0.009123
0.048889 0.011496 0.009211
0.015301 0.004488 -0.008428
-0.003112 -0.001029 0.009392
0.007418 -0.004091 -0.005882
0.002246 -0.022930 0.007815
0.044482 -0.004148 -0.007181
-0.058428 0.021498 0.004290
-0.044103 0.006637 -0.000416
-0.001290 0.023615 0.009819
-0.061736 0.019024 -0.002374
0.038024 0.017227 0.008903
0.048084 -0.021193 0.007075
0.030607 0.024506 -0.009422
0.004220 0.018269 0.005252
0.070483 0.008882 0.003361
-0.015839 0.015658 -0.008398
0.051040 0.007800 -0.004729
0.049193 -0.024877 0.000905
0.003155 0.017290 0.005179
0.021710 0.000669 -0.003698
0.010127 -0.022192 -0.008085
-0.021434 0.022419 0.006779
0.043967 0.007975 0.004917
-0.032505 0.002062 -0.008124
-0.073149 0.011092 0.004840
-0.046067 0.017041 -0.009779
0.002781 -0.011752 -0.005180
-0.055101 0.007086 -0.001920
0.062059 0.008729 -0.004133
-0.067042 0.012642 -0.005455
-0.062799 -0.019582 -0.005478
-0.046517 0.019021 -0.007756
0.008877 0.015083 0.004779
-0.038355 0.003614 -0.002018
0.018475 -0.000951 -0.005474
-0.067326 0.019863 -0.009302
0.067214 0.006976 0.008797
0.072551 -0.019105 -0.000817
-0.028400 0.011724 -0.001939
0.045806 0.012247 0.005136
-0.068535 0.016226 -0.001582
0.007702 -0.002606 -0.008635
-0.012318 -0.015236 -0.008204
0.004877 0.021525 0.003885
-0.024512 -0.013053 -0.003329
0.025469 0.015059 0.004148
0.040662 -0.014734 -0.005316
-0.038258 0.024207 0.009041
-0.072687 -0.022566 -0.003649
-0.055378 -0.020239 0.008525
0.019352 -0.004806 -0.008616
0.026668 -0.015130 0.006380
-0.049073 -0.018628 -0.001116
0.078875 -0.021362 0.000319
0.068098 0.022133 -0.007503
-0.004212 0.008823 -0.003805
0.078406 0.009784 -0.000940
-0.069602 0.015528 0.009921
0.049701 0.009217 0.004694
-0.070948 0.012940 -0.001521
0.059150 0.008353 0.008983
-0.000978 0.004939 0.006866
-0.044664 -0.021094 -0.001477
0.008556 0.001655 -0.009791
-0.011111 -0.002254 0.005043
-0.024056 -0.001639 -0.007817
-0.014052 -0.007966 -0.008937
0.028989 -0.010606 -0.002435
-0.077531 0.014791 0.002632
0.018815 0.012036 -0.000196
0.026344 0.014507 -0.001916
-0.022812 0.007331 0.004498
0.022286 0.003707 0.008496
-0.019252 -0.012471 0.006507
-0.007999 0.021826 -0.009706
0.009213 -0.001842 -0.008184
-0.073908 -0.004138 0.007397
-0.057480 -0.009584 -0.002487
-0.061000 -0.011165 0.006102
0.005864 -0.011048 -0.002784
0.032442 -0.024122 -0.003208
-0.071015 0.022094 0.001870
-0.072105 -0.015418 -0.005872
0.052939 0.007203 0.007903
-0.049832 -0.011999 0.005931
0.007777 -0.022450 0.004384
-0.018845 -0.012389 -0.001618
-0.017988 0.012358 -0.006076
0.027035 0.012183 0.006246
0.070826 0.004409 -0.007578
0.061273 0.001354 -0.007036
-0.059028 -0.008447 0.008999
-0.003318 -0.024383 -0.006502
-0.012437 0.016443 -0.008741
0.041099 -0.023838 -0.003851
-0.004627 0.010337 -0.007662
0.033064 -0.003542 -0.005949
-0.077291 0.017314 -0.009051
0.027581 -0.022749 -0.002210
-0.024025 0.023256 0.004709
0.056657 -0.003959 -0.007099
-0.065647 -0.000447 -0.003796
0.058240 0.015584 -0.008452
-0.059636 -0.006567 0.006677
-0.041370 -0.005312 -0.009484
0.078769 -0.023475 -0.007648
-0.002199 -0.020145 -0.005374
-0.032926 -0.009821 0.005642
-0.067443 -0.022895 0.004858
-0.069561 0.018303 0.005361
0.008831 0.016829 -0.008404
-0.066533 -0.021919 0.002092
-0.076621 -0.006645 -0.006522
0.031168 0.010135 0.003769
-0.026370 -0.016641 0.002686
0.008414 0.008693 -0.003958
-0.042762 -0.005300 0.007073
0.028654 0.000160 -0.009306
-0.005657 0.019121 0.003239
0.056950 0.000810 0.003598
-0.018191 -0.016242 -0.002777
0.064372 0.017422 -0.009838
-0.032473 -0.014445 -0.001707
0.058007 -0.017244 -0.008980
0.019466 -0.002825 -0.002394
0.023903 0.016632 0.008613
0.061561 0.011430 -0.009617
-0.066200 -0.000523 0.000825
0.041093 0.024583 0.005250
0.067494 0.014341 0.001779
-0.052067 0.022325 -0.001546
0.070191 0.014431 0.006295
-0.010246 -0.019306 0.000564
-0.021861 0.000764 -0.003284
0.003588 -0.001821 -0.003468
-0.000977 0.015741 -0.009467
0.065628 -0.006999 0.000242
0.020306 -0.012448 0.004383
-0.054612 0.012756 0.001269
-0.023946 -0.002078 -0.005204
0.035746 -0.001789 0.000082
-0.072607 -0.021213 0.008923
0.078314 0.021661 0.002440
0.063303 0.024360 0.002547
-0.043533 -0.000887 0.009532
-0.050563 0.010445 -0.003845
0.066776 0.017105 0.004687
0.059395 -0.018010 0.006500
0.048050 -0.011372 -0.003338
-0.020734 -0.000607 0.008624
-0.018748 -0.016403 0.006701
0.009310 -0.001728 -0.004386
-0.054440 0.001036 -0.006518
0.066070 -0.015436 -0.005996
0.029197 0.001167 0.003036
0.051149 0.003376 -0.007453
0.020760 -0.018273 0.005543
0.008542 0.002968 0.003661
0.027384 -0.014787 -0.006434
-0.018960 0.011599 0.007658
0.043627 -0.004223 -0.006062
0.054626 -0.023103 -0.008089
-0.030418 -0.005035 0.000255
-0.034077 0.010587 -0.002853
0.004239 -0.011310 0.005971
0.079926 0.012118 0.002125
0.009091 0.024251 0.001409
-0.022140 0.019639 -0.007798
-0.020733 -0.023808 0.005822
0.064028 -0.023183 -0.004107
-0.071646 -0.014638 0.006101
0.025509 0.002052 0.006247
-0.036819 0.007011 -0.009665
0.054871 -0.016382 0.007475
0.005357 0.016597 0.001660
-0.045474 0.020236 -0.008576
-0.015431 0.003435 -0.005831
0.076822 0.008818 0.002543
0.012526 -0.002014 0.009030
0.015530 0.023724 -0.004675
0.055086 -0.006979 0.001324
0.015922 -0.020217 0.007815
-0.002303 -0.022300 -0.002843
-0.063763 0.013085 -0.005512
0.051277 -0.017909 0.009495
-0.021816 -0.002314 -0.003747
-0.031376 -0.013944 0.002496
-0.005579 0.011350 0.005286
0.010124 0.004200 -0.002478
0.074402 -0.004161 -0.000059
-0.047512 -0.002107 0.005079
0.047606 -0.017101 -0.008572
-0.006198 0.009556 -0.002679
-0.071097 0.018275 -0.007476
-0.047361 -0.014237 0.001646
0.046022 -0.011305 0.007544
-0.018844 -0.023562 -0.007764
0.028347 0.024383 -0.005941
-0.056161 -0.008019 0.003692
-0.067491 0.022539 0.008281
0.067834 0.024995 -0.002390
0.040314 0.004779 0.005633
0.056937 0.008479 0.003529
-0.058925 -0.016009 0.001875
0.041385 -0.009623 -0.006162
-0.002090 0.015556 0.004035
0.038550 0.020783 0.000680
-0.063684 -0.017166 0.002051
-0.011842 0.011525 -0.001764
-0.044867 -0.016402 -0.005441
0.073053 -0.022969 -0.001967
-0.051269 -0.007294 0.007167
-0.011021 -0.004995 -0.008136
-0.017396 0.000799 0.005333
-0.021308 -0.019159 -0.001910
0.077260 -0.018846 0.007368
-0.036600 0.006189 0.004651
0.007826 -0.019070 0.005836
-0.017633 -0.024794 -0.007398
-0.004787 0.012917 -0.001401
-0.042491 -0.013251 -0.003341
-0.000095 -0.008992 -0.006331
0.000706 -0.018254 -0.001465
-0.042942 -0.009279 -0.005956
-0.071308 0.022525 -0.003545
0.077185 -0.006394 0.000236
0.076213 -0.022824 -0.004301
-0.000670 -0.005481 -0.001085
-0.068994 0.013637 0.001118
0.051820 0.001224 -0.008561
-0.057692 -0.011683 -0.009192
0.046858 -0.022925 0.007395
-0.049827 -0.014185 0.006316
0.057505 -0.024107 -0.002184
0.063070 -0.001122 0.006031
-0.022487 0.006958 -0.003974
0.044935 -0.000065 -0.005094
0.013509 0.001892 -0.005215
-0.068122 -0.023938 -0.005644
0.032798 -0.024864 -0.008232
0.027503 0.024005 -0.006876
-0.023262 -0.010723 0.000625
0.025332 0.004968 -0.000644
0.014310 0.002191 -0.008040
-0.063651 -0.003856 0.005338
0.051817 0.012807 -0.003481
0.042541 0.008463 -0.000420
0.007364 -0.013454 -0.000808
0.006978 -0.013894 0.006974
-0.043175 -0.011833 -0.002841
0.019655 0.014316 0.001398
-0.067102 0.017300 0.006249
0.033550 0.005378 0.001062
0.013182 -0.008955 0.000979
0.011004 -0.015029 -0.001645
-0.043625 0.015536 -0.005728
0.047352 -0.007891 0.004608
0.048390 -0.024094 0.009086
0.039257 -0.010336 -0.008180
0.072213 -0.016010 0.000312
-0.066369 -0.024573 0.004712
-0.055605 0.018576 -0.009229
0.013781 0.009606 0.009132
-0.025582 -0.018628 0.000715
0.049854 0.011512 -0.006668
0.022786 0.017811 0.002998
0.023637 -0.002863 -0.007610
-0.011640 0.012414 -0.000002
0.036777 0.015148 0.000993
0.064436 0.002594 -0.000107
0.069570 0.013756 -0.009725
-0.072076 0.018116 -0.001848
0.063582 -0.016245 -0.002333
-0.034320 0.015602 0.003154
0.045961 -0.019470 -0.005649
0.004977 -0.008440 0.004479
0.079420 -0.012049 -0.000378
0.050646 0.010326 -0.008696
0.043711 -0.024461 0.007826
-0.023665 -0.014003 0.008115
-0.073056 0.024275 0.004678
0.060764 0.014583 0.002461
-0.025136 -0.021273 0.002143
-0.003620 0.024470 -0.000429
-0.073637 -0.020210 -0.007497
-0.054511 -0.023919 -0.005270
-0.011042 0.007507 -0.006724
0.020813 -0.007473 -0.004621
-0.066373 0.016161 0.002470
0.015172 -0.003411 0.008538
-0.052840 0.021555 -0.006096
-0.073570 0.007817 0.006169
-0.010609 0.023893 -0.002795
0.029918 -0.003819 0.002748
0.052642 -0.024430 0.007170
-0.078497 0.004504 -0.008837
-0.026897 0.017038 -0.007887
0.041672 0.007597 -0.006029
-0.009164 -0.010419 -0.003604
0.003820 -0.000284 0.009619
-0.015960 0.015121 0.006789
0.062097 0.010404 -0.000996
-0.054631 0.018816 0.007712
-0.046590 0.023614 -0.003391
0.054542 0.007143 -0.009765
-0.005161 -0.020535 -0.003663
-0.034681 -0.018521 -0.006106
-0.058172 -0.001211 -0.009155
-0.030657 0.002886 0.008995
0.023409 -0.000092 0.004195
-0.055580 0.003814 0.002910
-0.036894 0.018483 0.000546
0.032364 0.011030 0.006270
0.035908 0.015788 0.002279
0.061743 -0.006401 -0.005286
-0.050727 -0.008364 0.007019
0.001233 0.022417 -0.008598
-0.016003 -0.008064 0.005412
0.051098 -0.001455 -0.000958
0.033791 0.012687 0.007761
-0.060096 0.004319 0.000174
-0.031023 0.005042 0.005513
0.072328 -0.020699 -0.000936
-0.077694 -0.006198 0.003689
0.061315 0.000410 0.006499
0.003437 0.019656 -0.006157
0.062931 -0.024119 -0.006589
0.079007 0.016359 -0.004438
-0.006913 0.007069 0.008710
0.018340 0.006157 0.007999
0.021304 0.002447 0.005345
-0.052730 -0.024432 0.008676
-0.061063 0.022781 0.001150
0.023809 -0.006444 -0.007640
0.069060 -0.015206 0.009696
0.027016 -0.009141 -0.008445
-0.035754 -0.011100 0.000642
0.079421 0.008065 -0.002571
0.023609 -0.024168 -0.004856
0.056175 -0.000537 -0.001433
0.049646 -0.018659 0.008121
0.012559 0.018269 -0.003632
0.021573 0.005466 -0.007566
0.011382 0.000031 0.001796
0.042121 -0.022990 -0.003613
-0.058059 -0.014968 0.001532
-0.050153 0.019437 0.002569
0.039337 0.010465 -0.001042
-0.049692 0.001585 0.008586
-0.066149 0.006577 0.006390
0.061488 0.008091 0.000953
-0.051189 -0.022180 -0.003476
0.070285 0.014741 0.004175
0.066961 -0.019408 -0.002213
0.052811 0.001879 -0.005797
0.001886 -0.000843 -0.009554
0.014335 0.016757 0.001841
0.029822 -0.002216 0.008684
0.009876 0.007465 -0.004787
0.019236 0.005056 -0.008257
-0.034039 0.021929 0.003186
0.048667 0.003107 0.007664
-0.027191 0.021057 -0.002835
-0.022561 0.016806 0.001741
-0.022024 -0.003143 -0.001154
0.024299 -0.002260 -0.006233
-0.044897 0.006014 -0.006484
0.005778 -0.009465 -0.006522
0.067582 -0.003593 -0.008224
-0.024970 0.016418 -0.007015
-0.057939 -0.023324 -0.003892
-0.014201 -0.008316 0.000413
0.015509 -0.021889 -0.001773
-0.044703 0.018593 -0.005077
-0.063034 -0.022343 0.008830
0.035271 -0.009367 -0.008045
0.002278 -0.024891 0.000701
-0.045252 0.021158 0.000233
0.018397 -0.000641 0.005001
0.073414 -0.021528 0.005654
-0.078596 -0.024203 0.003550
0.047318 -0.000937 -0.005768
-0.016881 -0.012639 -0.008438
-0.034028 0.023394 -0.001674
0.026895 0.016428 0.004892
-0.009310 -0.010581 -0.001281
-0.066920 0.022449 0.002845
0.006034 -0.014887 0.005773
0.050064 -0.023008 -0.000182
0.076356 -0.003205 -0.005875
-0.043318 0.005397 -0.006584
-0.075465 0.003001 -0.002505
0.065576 -0.017658 -0.009464
-0.063952 -0.013971 0.005444
-0.039096 -0.002466 -0.002881
0.041129 -0.011492 0.000560
0.071906 -0.003594 0.001033
0.042644 -0.024339 0.002845
-0.003895 -0.004448 0.000226
-0.028987 0.008491 -0.009565
-0.048469 -0.016150 -0.007824
-0.007280 -0.022120 -0.005035
0.031445 0.004518 0.000539
-0.037257 0.000095 0.006847
0.018309 -0.002201 -0.004199
0.015448 -0.015145 0.005979
0.011028 -0.016596 -0.006599
0.005284 -0.019449 -0.000451
0.066538 0.009111 -0.003596
0.024944 -0.003795 -0.002255
0.032304 -0.013044 -0.002764
-0.047177 -0.000141 0.007737
-0.060473 0.012083 -0.006922
-0.011783 -0.018297 -0.003266
0.068913 -0.011649 -0.003001
-0.002726 0.020943 -0.006991
0.004722 0.006437 -0.009884
-0.056669 -0.011177 0.007072
0.064973 -0.015338 -0.001541
-0.025805 0.015391 0.009635
-0.075774 0.014417 0.008424
-0.038207 -0.022188 -0.006532
-0.045871 -0.016042 0.009999
0.057546 -0.012475 0.008862
0.055448 -0.003163 0.005490
-0.004360 0.020620 -0.008208
-0.015249 -0.005641 -0.008841
0.079103 0.024763 -0.003754
-0.036042 -0.002202 0.000533
0.048970 0.022334 -0.000546
-0.022289 0.002751 0.000997
0.015916 0.000659 -0.005103
0.024451 0.009407 0.001868
0.018815 0.020633 -0.008662
-0.055471 0.014801 -0.000136
-0.051420 0.024856 -0.008743
0.067242 0.004895 0.001421
-0.022560 0.005933 -0.004104
-0.036934 -0.016114 -0.003398
-0.061510 0.024326 -0.006460
-0.012084 0.010083 -0.002372
0.019925 0.021661 0.009400
-0.047847 0.010201 0.003905
0.047345 -0.015919 -0.001626
-0.032009 0.003944 0.006399
0.006632 0.024824 -0.005797
-0.019708 0.016823 -0.000344
-0.032050 0.008192 -0.000928
-0.036971 -0.007991 -0.009155
0.009054 -0.001127 -0.009519
-0.059729 -0.019687 0.005817
0.024976 -0.015830 -0.006569
0.009458 -0.002945 0.004397
0.054045 -0.004761 0.008416
-0.025261 -0.017248 -0.006216
0.020174 0.013993 -0.004014
0.049678 -0.001636 -0.009432
0.043850 -0.002852 0.009344
-0.024453 -0.002194 -0.002822
-0.048555 0.014278 -0.000860
-0.026752 -0.003883 0.008750
-0.007693 0.000886 0.000525
-0.071534 0.001542 -0.003112
-0.065405 -0.021754 -0.000350
-0.002957 0.011812 -0.000192
-0.072399 0.009622 0.001267
0.075492 0.017385 -0.001619
0.069242 -0.005210 0.008160
-0.018649 0.021173 -0.004972
-0.068884 0.001507 0.003826
-0.043422 -0.017389 0.009652
-0.045242 0.010605 -0.004291
0.070598 -0.011633 -0.004520
-0.059060 0.000780 0.001683
0.026432 -0.016734 -0.009262
0.059065 -0.009811 0.008160
0.074342 -0.017872 -0.009741
-0.006055 -0.014366 -0.005575
-0.023095 0.022189 -0.003070
0.060870 -0.006773 -0.001261
-0.019463 0.019121 0.001271
-0.015431 -0.018217 0.008336
-0.031925 -0.011474 0.002039
-0.055051 0.010197 0.003756
0.047726 -0.014745 0.009728
-0.020114 -0.019660 -0.002651
0.064937 0.001113 0.004780
0.034766 0.015501 -0.009152
0.072387 0.022004 0.008337
-0.003434 -0.000252 -0.002296
-0.008835 0.000190 0.007752
0.028914 0.020846 -0.003941
0.059071 0.010412 -0.007215
0.063164 0.016173 0.004777
0.045002 0.024099 -0.009991
-0.079033 -0.010172 0.002729
0.006541 0.023612 0.000937
-0.063051 -0.007375 -0.002406
0.055165 0.005872 -0.006420
-0.078525 0.011204 -0.004177
0.006779 -0.009003 -0.009535
0.001847 0.005265 -0.009975
-0.000003 0.022507 -0.009195
-0.018083 -0.002503 -0.000585
-0.075847 -0.002858 0.009051
0.078145 0.018191 0.002103
0.023100 -0.017361 0.005111
0.058306 -0.010853 0.002529
-0.028495 -0.010674 0.009021
-0.071623 0.019198 0.004850
-0.054575 0.015907 -0.004392
0.013903 -0.024325 -0.004242
0.005627 0.024154 -0.002876
-0.035248 -0.008708 0.002057
-0.072057 -0.011673 -0.007131
-0.059876 0.020366 -0.008772
0.004006 -0.020868 -0.002035
0.069423 0.013279 0.005807
-0.073680 0.021476 0.001321
-0.061381 0.016974 0.005669
0.024604 -0.014527 0.003188
-0.002660 0.020465 0.008409
0.037656 -0.024883 0.003875
0.016915 -0.003376 0.005040
0.005425 -0.004799 -0.009837
0.021850 0.009201 -0.009698
-0.021800 -0.021234 0.007340
-0.024731 0.024379 -0.007826
0.010089 -0.016797 0.007763
0.063346 -0.006205 -0.007596
0.031668 0.023260 0.008274
0.045692 -0.007795 -0.001873
0.041872 -0.003195 0.008990
0.010877 -0.014203 0.001336
-0.056995 0.009822 -0.000250
0.014112 -0.018906 -0.004935
-0.058750 -0.009311 -0.009641
0.000179 -0.023970 -0.007738
0.046876 0.021621 0.000428
-0.040850 0.022663 0.007661
0.019470 -0.002414 0.002589
0.043561 -0.021561 0.005509
-0.076312 0.011624 -0.003437
0.066125 0.011530 -0.006436
0.034795 -0.013536 0.003265
0.003587 0.000511 -0.001248
-0.001954 0.016277 -0.002120
-0.048119 -0.016416 -0.005214
-0.038484 -0.001260 -0.006215
0.079765 0.007162 0.003756
-0.068600 -0.017240 0.008631
0.023094 0.016300 0.007141
0.054823 0.023374 0.009119
-0.026178 0.010794 0.004710
0.013180 -0.022381 -0.007518
0.036944 -0.007972 0.002724
0.016332 -0.019698 -0.003776
-0.019559 -0.017159 -0.008814
-0.058497 -0.019306 0.000463
0.077872 -0.009053 0.004672
0.078819 -0.006982 -0.006330
0.002176 0.007374 0.001715
-0.046339 -0.007742 0.008246
0.060699 -0.008394 -0.003610
-0.026909 0.010001 0.004857
-0.061511 0.023944 -0.008929
0.064067 -0.009993 -0.003112
0.015782 0.008623 -0.007736
-0.016784 0.009675 0.003533
-0.049137 -0.019542 0.005728
-0.055033 -0.020566 -0.002654
-0.002728 0.003809 -0.001926
-0.068414 0.018933 0.003559
-0.074557 -0.017942 -0.004632
-0.037282 0.002003 0.005788
-0.024162 0.004457 0.006943
-0.077059 0.017231 -0.005991
-0.028055 0.020256 0.005389
0.040306 -0.014895 0.001858
0.053467 0.008285 0.005748
0.062363 0.021066 0.000215
0.040244 0.004739 -0.001167
0.036120 -0.014557 -0.008243
0.018885 -0.021996 -0.006802
0.063172 -0.020565 0.008615
0.074227 -0.010125 -0.001844
-0.059803 -0.016025 0.007952
-0.012024 0.024426 0.008150
0.065699 -0.007326 -0.009718
-0.072226 0.003582 -0.001093
-0.077637 -0.000764 0.008815
0.078673 0.022664 -0.000636
0.009584 0.024740 0.005813
-0.051979 -0.012785 -0.005115
-0.036282 0.020788 -0.003622
-0.039277 0.017864 -0.001763
-0.016825 0.005791 0.001591
-0.037547 -0.003292 0.000935
0.049141 0.007237 -0.008686
0.021454 -0.004568 0.008678
-0.017681 0.024786 -0.007433
0.044338 0.004439 -0.005316
-0.044817 -0.000830 -0.004950
0.003273 0.023800 -0.005111
-0.030144 0.013673 -0.004108
0.007507 0.009795 -0.006722
0.032902 0.011139 0.004594
0.052265 -0.018385 0.001427
-0.025110 -0.019878 0.001117
0.061078 -0.008138 -0.001578
-0.050494 -0.002714 -0.004213
0.025107 -0.003318 -0.001164
0.040194 -0.000028 -0.001978
0.006363 -0.010081 0.007091
-0.048752 0.006774 -0.007710
-0.042932 -0.013815 0.002687
-0.005640 -0.016250 0.000157
-0.013696 -0.002043 0.003573
-0.056312 0.012540 -0.007474
-0.000105 -0.017358 0.007530
0.062964 -0.021759 -0.005241
0.033879 0.012950 0.003985
0.058881 -0.003205 -0.009347
0.018377 -0.019989 -0.005366
0.030521 -0.004002 0.001445
-0.012756 -0.009709 -0.004648
-0.047708 -0.003478 0.002526
-0.028470 -0.008029 0.003904
-0.013513 0.014616 -0.000192
-0.023113 0.017955 0.000275
0.026274 -0.022846 -0.008995
0.008224 -0.008759 -0.001516
-0.032858 -0.002909 -0.005331
-0.003904 0.012893 -0.005075
0.014760 0.001342 -0.005492
0.077977 0.002178 -0.003438
-0.041366 0.004694 0.003139
-0.035761 -0.005628 -0.008537
0.000315 -0.001185 -0.004531
0.060202 -0.019418 0.007368
-0.059269 -0.020389 -0.008257
-0.058165 -0.002782 0.006060
0.069855 0.009805 -0.001795
0.026070 0.003825 0.008818
0.045862 -0.013514 -0.008499
0.002719 -0.005762 0.000407
-0.061493 0.013179 0.005109
0.036567 0.019252 0.003688
-0.039914 -0.022039 -0.009379
0.033171 0.016433 -0.008630
-0.034031 -0.006815 -0.008166
0.033288 -0.022923 -0.009394
-0.023291 -0.015550 -0.002382
-0.027895 0.023193 -0.007563
-0.064955 -0.010190 0.006310
0.013369 0.004293 -0.007157
0.075224 0.023321 0.009843
-0.051028 -0.009368 -0.006250
0.068896 -0.023757 -0.009157
0.032012 -0.007581 -0.000009
-0.026318 -0.010390 0.005078
0.042046 0.017375 -0.005167
-0.078949 0.023627 0.006028
0.015133 0.022499 0.003474
0.077556 0.018751 -0.000954
0.010829 0.020061 -0.009987
0.052024 -0.020022 0.004062
0.001433 0.018609 -0.006838
-0.001079 0.005190 -0.006853
0.055313 0.006666 0.000868
0.017855 -0.007320 -0.005450
0.061675 -0.004474 -0.004598
-0.057409 0.024095 0.005662
0.049275 0.009511 -0.009656
0.050635 -0.023116 -0.000592
-0.067536 0.013168 -0.009860
-0.068458 0.001698 0.004297
0.002926 -0.006907 0.004046
-0.068615 0.003893 -0.009253
-0.045225 -0.006716 -0.009792
0.065362 0.007713 0.004150
-0.017947 -0.006558 0.003032
-0.035637 0.011657 0.002702
0.049302 0.021844 -0.002394
-0.040449 0.001614 -0.001288
0.057210 -0.011556 -0.000229
0.004542 -0.015280 0.008718
-0.047744 -0.008015 0.000126
-0.019729 -0.010599 -0.008966
-0.003483 -0.020017 0.003380
-0.013791 0.000208 0.007546
-0.020509 0.011981 -0.003629
0.014187 -0.022508 0.003670
0.032891 0.009142 -0.001180
0.039154 -0.024251 -0.007902
-0.038162 -0.002339 -0.008714
0.078354 0.016084 -0.003089
-0.079061 0.015254 -0.008882
-0.045489 0.010060 0.004891
0.025278 -0.007762 -0.002431
0.046363 0.012829 -0.009222
0.058525 0.008674 -0.006989
-0.059278 0.017300 -0.005728
0.057097 0.020303 -0.002391
-0.016892 0.008293 -0.001091
-0.052177 0.019880 0.006824
0.034545 0.008160 0.002972
0.003033 -0.007914 -0.003269
-0.024958 0.018893 -0.008389
0.007236 -0.008004 0.009549
0.067701 0.005134 -0.006782
0.038632 -0.005537 0.002700
-0.004856 0.024961 0.003514
-0.022510 0.020655 0.001209
-0.020260 -0.020196 0.003646
0.018043 0.004453 -0.005305
0.071180 -0.014131 -0.000702
0.015778 0.024618 0.002985
-0.004109 0.010030 0.009455
-0.058304 0.023214 0.001639
-0.003971 -0.017435 -0.009031
0.073796 -0.020913 0.003968
0.039118 0.013817 -0.004879
-0.041440 -0.023198 -0.002934
-0.062751 -0.023005 0.008085
-0.072728 -0.017869 0.002415
-0.050683 0.009988 0.002197
-0.046260 -0.011318 -0.000255
-0.035677 -0.010757 -0.004023
0.074319 0.021012 0.003900
-0.010997 -0.021087 0.004164
0.074254 0.014485 0.007598
-0.026316 -0.023613 -0.001470
-0.044826 0.024709 0.004759
-0.054021 -0.015905 0.005962
0.071626 0.017596 0.002762
0.073611 0.015164 0.006022
-0.012749 0.018140 -0.008677
0.009886 0.007873 0.005599
-0.021010 -0.019828 -0.003929
0.014864 -0.007932 0.001973
0.034938 -0.018756 -0.005360
-0.064129 -0.015578 -0.002144
0.063356 0.024500 -0.008508
0.016221 -0.010834 -0.006912
-0.047380 0.009653 0.008907
-0.057613 -0.022998 -0.003737
-0.076500 -0.010674 -0.007016
0.051647 -0.019824 -0.002679
0.005548 0.008651 -0.000552
-0.033559 0.016260 0.008934
-0.026256 0.024760 -0.003143
-0.057354 -0.015752 -0.006498
-0.022486 -0.018474 -0.008744
0.078121 0.017152 0.009400
-0.048338 -0.006094 0.002694
0.027653 -0.021280 0.009686
0.067666 -0.018240 0.002509
0.003440 -0.008495 0.001582
-0.074324 0.018323 -0.004683
-0.001878 -0.010484 0.001002
-0.011249 0.006705 -0.001852
0.016200 -0.007015 -0.005620
0.079321 0.024294 0.000308
0.004724 0.020011 0.008932
-0.065281 -0.011550 -0.003462
0.041296 0.010760 -0.001272
-0.031964 0.001540 -0.009123
0.001291 -0.019614 -0.008964
-0.028598 0.019942 -0.004989
0.035429 -0.012684 -0.003217
-0.005331 -0.001761 -0.008529
0.012364 -0.000356 -0.002880
0.047225 -0.024799 -0.007850
0.004133 0.007599 -0.006659
0.001098 -0.020241 0.001143
-0.051811 0.009760 -0.004844
0.028801 0.023453 0.004163
0.065612 -0.003929 -0.004702
-0.010279 0.022711 -0.008680
0.063323 -0.017455 -0.000085
-0.028004 -0.020123 0.003932
0.074764 -0.010135 0.002191
0.023976 -0.015213 -0.002451
0.010683 0.023509 0.006009
0.025329 0.010346 0.003083
0.019459 0.003996 -0.007358
-0.031798 -0.020669 0.004393
-0.078562 0.008390 -0.005384
-0.029953 0.018507 0.006858
0.076297 0.016418 -0.005799
0.060257 -0.013454 0.002858
0.038269 0.003696 0.004706
0.026191 0.024651 -0.003090
0.055546 -0.006117 0.009366
0.032173 0.014493 -0.006686
-0.005326 -0.002183 0.007405
-0.034803 0.005919 0.008807
-0.037815 0.016493 0.007031
-0.019495 -0.019850 -0.001372
0.010949 0.010400 -0.000466
0.017213 0.019065 -0.005534
-0.008248 0.003219 0.003719
0.013512 -0.015584 -0.001842
-0.062402 0.003201 0.003485
-0.011406 -0.000323 -0.009749
-0.011019 -0.020054 0.009554
0.013053 0.004191 -0.002778
-0.064106 -0.009750 0.007806
-0.009164 -0.019715 0.004966
0.064784 -0.004373 -0.004205
0.003647 0.004573 0.001514
-0.025133 -0.001716 -0.003614
0.062920 0.006800 -0.005589
-0.067663 0.002580 0.008588
0.073653 -0.023787 -0.004932
-0.058239 0.017207 0.004424
0.065334 0.019549 0.007708
-0.005492 -0.012126 -0.004439
-0.009443 0.004795 0.002294
-0.033242 -0.004184 -0.000802
-0.008578 -0.009617 0.003799
0.059852 -0.018463 -0.007281
-0.057329 -0.018209 -0.001799
-0.051630 0.024185 -0.003306
0.069320 -0.016530 -0.007444
-0.049056 0.011107 0.005758
0.077671 -0.017059 -0.001204
-0.021196 0.014264 0.006827
0.068647 0.017857 -0.005171
-0.045981 0.005043 0.009194
0.070443 0.008072 -0.001375
0.010011 0.024865 -0.001206
0.039646 -0.022696 -0.006886
0.031696 0.003587 -0.001554
-0.021566 0.002255 -0.001170
-0.063873 0.002287 0.004218
-0.002059 0.000891 -0.007288
-0.048623 0.016007 -0.004497
-0.060089 -0.002751 0.002046
-0.053040 0.000464 0.004068
0.073580 0.007406 0.006761
-0.017279 -0.024575 -0.009080
0.044706 0.004661 -0.005130
-0.051017 -0.014392 0.004257
-0.012895 -0.011513 0.005679
0.058625 -0.009720 -0.004414
0.070402 -0.020780 0.008877
0.068968 0.019674 0.001412
-0.029411 0.012186 -0.009185
0.065455 -0.000933 -0.000773
0.073639 0.003530 0.004977
-0.062882 0.018831 0.002360
0.031728 -0.015442 0.003854
0.010958 -0.001507 -0.007658
-0.066480 -0.002523 0.005962
-0.039193 -0.016101 0.001252
-0.022455 -0.004831 -0.008940
-0.014832 0.014587 0.006712
-0.055048 -0.022966 -0.004678
0.034194 -0.002884 -0.000833
0.015309 0.008458 0.008191
0.067168 -0.023447 0.006565
0.054113 -0.015061 -0.008937
0.028096 -0.008218 -0.009446
0.068098 -0.023221 0.004617
0.077261 -0.020869 -0.008622
-0.001871 0.010252 0.001399
0.018160 -0.000276 0.007074
0.046901 0.012574 0.006174
-0.046678 0.010061 0.000710
-0.063541 0.007785 -0.009910
-0.026999 0.012314 -0.002768
-0.039667 -0.000644 0.000672
-0.023656 0.023167 0.005322
-0.009652 0.017985 -0.007085
-0.041589 -0.001337 -0.009960
-0.057284 -0.012559 0.003135
-0.010570 0.012999 -0.000333
0.076762 -0.006719 0.000326
0.024994 0.019730 -0.002867
-0.009592 -0.007305 -0.006999
-0.052231 -0.007927 -0.009762
-0.024872 0.023681 -0.000674
-0.033300 -0.015237 -0.009062
-0.036570 -0.005850 0.006591
0.031164 0.007779 -0.009581
-0.004643 -0.002608 0.007678
-0.047316 0.017294 0.005486
-0.032904 -0.015391 0.008988
-0.063652 -0.016848 0.007482
-0.055333 -0.017654 0.006229
-0.075860 -0.020708 -0.004885
-0.017459 -0.004343 -0.002613
0.040296 -0.023205 -0.001906
-0.028497 -0.002806 -0.003127
0.011155 -0.014467 -0.003490
-0.051780 0.017620 -0.007461
